<svg xmlns="http://www.w3.org/2000/svg" version="1.1" xmlns:xlink="http://www.w3.org/1999/xlink" width="1000" height="1000"><style>
    #light-icon {
      display: inline;
    }
    #dark-icon {
      display: none;
    }

    @media (prefers-color-scheme: dark) {
      #light-icon {
        display: none;
      }
      #dark-icon {
        display: inline;
      }
    }
  </style><g id="light-icon"><svg xmlns="http://www.w3.org/2000/svg" version="1.1" xmlns:xlink="http://www.w3.org/1999/xlink" width="1000" height="1000"><g><g transform="matrix(41.666666666666664,0,0,41.666666666666664,0,0)"><svg xmlns="http://www.w3.org/2000/svg" viewBox="0 0 24 24" fill="none" aria-hidden="true" width="24" height="24"><rect x="1.5" y="2" width="16" height="2.5" rx="1.25" fill="currentColor" opacity="0.4"></rect><rect x="1.5" y="9.3" width="10" height="2.5" rx="1.25" fill="#3b82f6"></rect><rect x="1.5" y="16" width="7.5" height="2.5" rx="1.25" fill="currentColor" opacity="0.4"></rect><line x1="13" y1="7" x2="22" y2="7" stroke="#3b82f6" stroke-width="2" stroke-linecap="round"></line><line x1="17.5" y1="7" x2="17.5" y2="21.5" stroke="#3b82f6" stroke-width="2.2"></line><line x1="13" y1="21.5" x2="22" y2="21.5" stroke="#3b82f6" stroke-width="2" stroke-linecap="round"></line></svg></g></g></svg></g><g id="dark-icon"><svg xmlns="http://www.w3.org/2000/svg" version="1.1" xmlns:xlink="http://www.w3.org/1999/xlink" width="1000" height="1000"><g clip-path="url(#SvgjsClipPath1165)"><rect width="1000" height="1000" fill="#ccdcff"></rect><g transform="matrix(29.166666666666668,0,0,29.166666666666668,150,150)"><svg xmlns="http://www.w3.org/2000/svg" viewBox="0 0 24 24" fill="none" aria-hidden="true" width="24" height="24"><rect x="1.5" y="2" width="16" height="2.5" rx="1.25" fill="currentColor" opacity="0.4"></rect><rect x="1.5" y="9.3" width="10" height="2.5" rx="1.25" fill="#3b82f6"></rect><rect x="1.5" y="16" width="7.5" height="2.5" rx="1.25" fill="currentColor" opacity="0.4"></rect><line x1="13" y1="7" x2="22" y2="7" stroke="#3b82f6" stroke-width="2" stroke-linecap="round"></line><line x1="17.5" y1="7" x2="17.5" y2="21.5" stroke="#3b82f6" stroke-width="2.2"></line><line x1="13" y1="21.5" x2="22" y2="21.5" stroke="#3b82f6" stroke-width="2" stroke-linecap="round"></line></svg></g></g><defs><clipPath id="SvgjsClipPath1165"><rect width="1000" height="1000" x="0" y="0" rx="350" ry="350"></rect></clipPath></defs></svg></g></svg>